<?xml version="1.0" standalone="no"?>
<!DOCTYPE svg PUBLIC "-//W3C//DTD SVG 1.1//EN" "http://www.w3.org/Graphics/SVG/1.1/DTD/svg11.dtd" >
<!--
2013-9-30: Created.
-->
<svg>
<metadata>
Created by iconfont
</metadata>
<defs>

<font id="iconfont" horiz-adv-x="1024" >
  <font-face
    font-family="iconfont"
    font-weight="500"
    font-stretch="normal"
    units-per-em="1024"
    ascent="896"
    descent="-128"
  />
    <missing-glyph />
    
    <glyph glyph-name="lishi" unicode="&#58898;" d="M0.021488 748.550922l1023.957021 0 0-127.995139-1023.957021 0 0 127.995139ZM0.021488 364.542992l1023.957021 0 0-127.995139-1023.957021 0 0 127.995139ZM0.021488-19.445496l1023.957021 0 0-127.995139-1023.957021 0 0 127.995139Z"  horiz-adv-x="1024" />

    
    <glyph glyph-name="sousuo" unicode="&#58892;" d="M936.225911-88.973012 718.113311 124.833515c4.238534 4.495384 8.391111 9.115612 12.447497 13.869892 132.25721 154.989957 114.532523 388.475685-39.594787 521.479909C536.834618 793.185492 304.675094 775.368708 172.411745 620.355215 40.157605 465.365258 57.882292 231.888739 212.009601 98.88247c131.930775-113.856118 321.035714-117.1747 455.722252-18.550495l221.8886-217.509872c13.220093-12.951987 34.367739-12.669554 47.239907 0.633427C949.728436-123.234327 949.442934-101.941372 936.225911-88.973012zM255.262708 149.262904c-126.280078 108.910479-140.807956 300.066123-32.437783 426.986791s298.599725 141.517107 424.886967 32.612769c126.287241-108.910479 140.811026-300.079426 32.443923-426.982698C571.786665 54.959098 381.560182 40.362658 255.262708 149.262904z"  horiz-adv-x="1024" />

    
    <glyph glyph-name="quxiao" unicode="&#58891;" d="M580.62 390.811l336.764-340.498c29.316-29.314 47.977-58.192 18.649-87.517-29.313-29.328-58.207-10.667-87.518 18.647l-329.315 344.229-346.384-346.38c-29.557-29.545-58.817-48.207-88.361-18.662-29.559 29.558-10.898 58.804 18.647 88.361l338.932 342.665-336.766 333.034c-29.327 29.313-47.975 58.205-18.649 87.518 29.314 29.327 58.206 10.679 87.518-18.647l344.229-329.315 333.837 333.836c29.545 29.558 58.804 48.207 88.363 18.662 29.543-29.544 7.164-58.818-22.395-88.362l-337.554-337.569z"  horiz-adv-x="1024" />

    
    <glyph glyph-name="weizhi" unicode="&#58967;" d="M849.317647 502.10842c0 189.682122-154.958247 343.459285-346.293887 343.459285-191.217532 0-346.293887-153.777163-346.293887-343.459285 0-62.597463 17.243829-121.179239 46.770934-171.729643h-0.472433l299.995386-429.324106 300.113495 429.324106h-0.472434c29.645213 50.550404 46.652826 109.13218 46.652826 171.729643zM503.141869 330.496886c-95.66782 0-173.146943 76.770473-173.146944 171.611534s77.479123 171.729642 173.146944 171.729642 173.146943-76.888581 173.146943-171.729642-77.479123-171.611534-173.146943-171.611534z"  horiz-adv-x="1024" />

    
    <glyph glyph-name="arrow-right" unicode="&#58887;" d="M714.208 346.144L385.504 17.440000000000055a53.568 53.568 0 0 0-75.712 75.712L600.64 384 309.792 674.848a53.568 53.568 0 0 0 75.712 75.712l328.704-328.704a53.472 53.472 0 0 0 0-75.712z"  horiz-adv-x="1024" />

    
    <glyph glyph-name="KVM" unicode="&#58881;" d="M785.067-8.533c20.48 0 34.133-13.654 34.133-34.134 0-17.066-13.653-30.72-30.72-34.133H273.067c-20.48 0-34.134 13.653-34.134 34.133 0 17.067 13.654 30.72 30.72 34.134h515.414zM921.6 827.733c37.547 0 68.267-30.72 68.267-68.266v-614.4c0-37.547-30.72-68.267-68.267-68.267H102.4c-37.547 0-68.267 30.72-68.267 68.267v614.4c0 37.546 30.72 68.266 68.267 68.266h819.2z m0-68.266H102.4v-614.4h819.2v614.4zM716.8 486.4c20.48 0 34.133-13.653 34.133-34.133 0-17.067-13.653-30.72-30.72-34.134H665.6l126.293-112.64c13.654-13.653 13.654-34.133 3.414-47.786-10.24-13.654-30.72-13.654-44.374-6.827l-3.413 3.413L614.4 373.76v-58.027c0-20.48-13.653-34.133-34.133-34.133-17.067 0-30.72 13.653-34.134 30.72V418.133c0 37.547 27.307 64.854 64.854 68.267H716.8z"  horiz-adv-x="1024" />

    
    <glyph glyph-name="huiyishi1" unicode="&#58882;" d="M0 896h1023.398v-722.399H0V896z m78.26-78.26v-565.879h866.878V817.741H78.26zM467.151 204.243l-340.972-270.9 48.641-61.283 341.033 270.9zM556.367 203.882l331.1-270.9-49.545-60.56-331.1 270.899zM397.5 597.047l-55.384-55.384 155.376-155.315L740.76 631.963l-55.324 55.384-187.944-190.352zM481.6 173.601v-215.515h78.259V173.6z"  horiz-adv-x="1024" />

    
    <glyph glyph-name="guidaojiaotong1" unicode="&#58883;" d="M364.8 243.2c25.6 0 51.2 19.2 51.2 44.8 0 25.6-19.2 44.8-51.2 44.8-25.6 0-51.2-19.2-51.2-44.8 0-25.6 19.2-44.8 51.2-44.8z m300.8 0c25.6 0 51.2 19.2 51.2 44.8 0 25.6-19.2 44.8-51.2 44.8-25.6 0-51.2-19.2-51.2-44.8 0-25.6 19.2-44.8 51.2-44.8zM928 832H96v-723.2h185.6L198.4 0c-12.8-19.2-12.8-44.8 12.8-57.6 6.4-6.4 19.2-6.4 25.6-6.4 12.8 0 25.6 6.4 38.4 19.2l121.6 160h236.8l121.6-160c6.4-12.8 19.2-19.2 38.4-19.2 6.4 0 19.2 0 25.6 6.4 19.2 12.8 25.6 38.4 6.4 57.6l-83.2 108.8H928V832z m-89.6-640H185.6V384h659.2v-192z m0 275.2H185.6V748.8h659.2v-281.6z"  horiz-adv-x="1024" />

    
    <glyph glyph-name="duomeitishipinbofang" unicode="&#58884;" d="M897.707-25.6H133.12c-61.44 0-112.64 51.2-112.64 112.64V715.093c3.413 61.44 51.2 112.64 112.64 112.64h761.173c61.44 0 112.64-51.2 112.64-112.64V87.04c0-61.44-47.786-112.64-109.226-112.64zM133.12 756.053c-23.893 0-40.96-20.48-40.96-44.373v-628.053c0-23.894 17.067-44.374 40.96-44.374h761.173c23.894 0 40.96 20.48 40.96 44.374V715.093c0 23.894-17.066 44.374-40.96 44.374 3.414-3.414-761.173-3.414-761.173-3.414zM385.707 527.36c0 37.547 27.306 54.613 61.44 34.133l221.866-129.706c34.134-20.48 34.134-51.2 0-71.68L447.147 230.4c-34.134-20.48-61.44-3.413-61.44 34.133V527.36z"  horiz-adv-x="1024" />

    
    <glyph glyph-name="kongzhishi1" unicode="&#58885;" d="M890 776H134a70 70 0 0 1-70-70v-500a70 70 0 0 1 70-70h756a70 70 0 0 1 70 70V706a70 70 0 0 1-70 70z m-10-520a40 40 0 0 0-40-40H712V448a40 40 0 0 1-80 0v-232h-80V528a40 40 0 0 1-80 0v-312h-80V384a40 40 0 0 1-80 0v-168H184a40 40 0 0 0-40 40V656a40 40 0 0 0 40 40h656a40 40 0 0 0 40-40zM696 72H328a40 40 0 0 1 0-80h368a40 40 0 0 1 0 80z"  horiz-adv-x="1024" />

    
    <glyph glyph-name="jiaotongyunshu" unicode="&#58886;" d="M758.48 862.276H264.728c-102.602 0-185.523-84.247-185.523-188.176v-500.825c0-82.765 52.526-152.897 125.573-178.15 9.759-50.493 53.54-88.681 106.067-88.681 48.905 0 90.358 33.172 103.646 78.656h194.228c13.271-45.443 54.65-78.656 103.646-78.656 52.428 0 96.293 38.13 106.067 88.677 73.103 25.267 125.573 95.484 125.573 178.154V674.1c0.001 104.07-83.057 188.176-185.523 188.176z m123.757-689.52c0-69.038-55.111-124.997-123.235-124.997h-0.31l3.25-35.111c-0.147-27.59-26.202-54.116-51.191-45.458-24.173 8.374-39.839 19.586-39.839 45.458v30.34h-318.61v-30.34c0-25.956-19.755-45.516-45.52-45.516-25.588 0-45.516 19.644-45.516 45.516l3.255 35.111h-0.309c-68.057 0-123.232 55.892-123.232 124.997l-1.09 219.189 742.351 0.419v-219.608h-0.004zM670.911 452.632l-90.412 163.303c-8.4 14.753-27.375 20.032-42.145 11.384-14.874-8.713-19.854-27.78-11.352-42.711l83.221-131.976H458.505l-90.07 162.174c-8.4 14.76-27.37 20.038-42.145 11.385-14.875-8.71-19.854-27.772-11.352-42.71l82.88-130.849H139.89l1.086 221.992c0 69.033 67.34 126.963 135.465 126.963h485.5c68.062 0 120.295-57.867 120.295-126.963v-219.61l1.08-2.382H670.912zM352.302 179.54c33.514 0 60.684 27.17 60.684 60.686 0 33.52-27.171 60.69-60.684 60.69-33.517 0-60.687-27.172-60.687-60.69 0-33.517 27.172-60.686 60.687-60.686z m364.124 0c33.518 0 60.688 27.17 60.688 60.686 0 33.52-27.171 60.69-60.688 60.69s-60.688-27.172-60.688-60.69c0-33.517 27.17-60.686 60.688-60.686z m0 0"  horiz-adv-x="1024" />

    
    <glyph glyph-name="jiantou" unicode="&#58888;" d="M99.446 501.894c0 12.446 5.093 23.237 15.276 32.373 10.183 9.135 22.294 13.671 36.333 13.609h722.491c13.967 0 26.079-4.538 36.331-13.609 10.252-9.074 15.344-19.863 15.276-32.373-0.069-12.506-5.162-23.298-15.276-32.371L548.631 147.647c-10.183-9.074-22.293-13.61-36.332-13.61-14.036 0-26.145 4.538-36.331 13.61L114.722 469.523c-10.183 9.073-15.277 19.865-15.277 32.371z"  horiz-adv-x="1024" />

    
    <glyph glyph-name="shipinxinhaochuli" unicode="&#58889;" d="M672-32V96l192-192H128V672h64v-704h480zM256 864h576v-768h-64V800H288v-128L96 864h160z m160-704h128v-64H416v64z m35.2 400v-96l76.8 48-76.8 48zM400 672c3.2 0 6.4 0 9.6 3.2l220.8-144c9.6-6.4 9.6-22.4 0-28.8l-220.8-144c-3.2-3.2-6.4-3.2-9.6-3.2-6.4 0-16 6.4-16 16V656c0 9.6 9.6 16 16 16z"  horiz-adv-x="1024" />

    
    <glyph glyph-name="jiaoshi1" unicode="&#58890;" d="M398.933 530.347a138.667 138.667 0 0 0 96.384-238.336 198.272 198.272 0 0 0 101.974-173.355 32 32 0 0 0-64 0 134.4 134.4 0 0 1-133.718 134.4h-1.408 0.726a134.4 134.4 0 0 1-134.4-134.4 32 32 0 1 0-64 0c0 74.581 41.173 139.52 101.973 173.397a138.667 138.667 0 0 0 96.47 238.294z m0.598-213.334a74.667 74.667 0 1 1-0.64 0h-0.64zM629.248 403.157h149.333q32 0 32-32t-32-32H629.248q-32 0-32 32t32 32zM679.083 266.453h99.498q32 0 32-32t-32-32h-99.498q-32 0-32 32t32 32zM528.17 874.112l4.097-2.859 469.333-384a32 32 0 0 0-36.65-52.266l-3.84 2.73-16.043 13.142V-35.84a74.667 74.667 0 0 0-68.523-74.41l-6.144-0.257H153.6a74.667 74.667 0 0 0-74.41 68.566l-0.257 6.101V450.901l-16-13.184a32 32 0 0 0-41.77 1.067l-3.243 3.413a32 32 0 0 0 1.024 41.814l3.456 3.242 469.333 384a32 32 0 0 0 36.438 2.859zM512 805.205L142.933 503.253V-35.84a10.667 10.667 0 0 1 8.235-10.368l2.432-0.299h716.8a10.667 10.667 0 0 1 10.368 8.235l0.299 2.432V503.21L512 805.206z"  horiz-adv-x="1024" />

    
    <glyph glyph-name="jiantouyou" unicode="&#58893;" d="M734.469 786.375c23.906-22.969 23.437-61.406 0-84.844L416.844 384l317.625-317.531c23.437-23.438 23.437-61.407 0-84.844s-61.407-23.437-84.844 0l-360.094 360c-12.844 11.344-32.062 50.531 0 84.844l360.094 360c16.969 17.906 55.406 28.219 84.844-0.094z"  horiz-adv-x="1024" />

    
    <glyph glyph-name="shipinchuanshu" unicode="&#58894;" d="M897.024 760.832H126.976c-35.328 0-64-28.672-64-64v-626.176c0-35.328 28.672-64 64-64h770.048c35.328 0 64 28.672 64 64V696.832c0 35.328-28.672 64-64 64z m0-689.664H126.976V696.832h770.048v-625.664zM678.4 476.672L453.632 606.72a47.616 47.616 0 0 1-48.128 0c-14.848-8.704-24.064-24.576-24.064-41.472v-259.584c0-16.896 9.216-32.768 24.064-41.472 7.168-4.096 15.36-6.656 24.064-6.656 8.192 0 16.896 2.048 24.064 6.656L678.4 393.728c14.848 8.704 24.064 24.576 24.064 41.472s-9.216 32.768-24.064 41.472z m-232.96-143.36V537.088L622.592 435.2 445.44 333.312zM763.392 135.68H260.608c-17.408 0-31.232 13.824-31.232 31.232s13.824 31.232 31.232 31.232h502.784c17.408 0 31.232-13.824 31.232-31.232S780.8 135.68 763.392 135.68z"  horiz-adv-x="1024" />

    
    <glyph glyph-name="yule" unicode="&#58895;" d="M901.12 171.008L557.056 597.504c0.512 6.656 1.024 12.8 1.024 19.456C558.592 770.56 433.152 896 279.04 896 125.44 896 0 770.56 0 616.96c0-154.112 125.44-279.04 279.04-279.04 6.656 0 12.8 0.512 19.456 1.024L724.992-5.12c5.632-4.608 12.8-6.656 19.456-6.656 8.192 0 15.872 3.072 22.016 9.216l24.064 24.064c0-9.216-1.024-19.456-4.608-29.184-8.192-21.504-26.624-38.912-55.808-51.2-34.304-14.336-87.552 10.752-149.504 39.424-113.664 53.248-269.824 126.464-436.224-4.096-13.312-10.752-15.872-30.208-5.12-43.52 10.752-13.312 30.208-15.872 43.52-5.12 136.704 107.008 261.632 48.64 371.712-3.072 54.272-25.088 105.984-49.664 153.6-49.664 15.872 0 31.744 2.56 46.592 9.216 45.568 18.944 75.776 48.64 90.112 87.04 14.848 39.936 7.68 79.872 0 103.936l54.784 54.784c10.752 10.752 11.776 28.672 1.536 40.96zM61.952 616.96c0 119.808 97.28 217.088 217.088 217.088s217.088-97.28 217.088-217.088-97.28-217.088-217.088-217.088c-119.296 0-217.088 97.28-217.088 217.088zM742.4 60.416L376.832 355.328c75.776 28.16 135.68 88.064 163.84 163.84L835.584 153.6l-44.032-44.032c-4.096-2.56-7.168-5.632-9.728-9.728L742.4 60.416zM555.008 380.928c-12.288 12.288-31.744 12.288-44.032 0-12.288-12.288-12.288-31.744 0-44.032l67.072-67.584c6.144-6.144 13.824-9.216 22.016-9.216 8.192 0 15.872 3.072 22.016 9.216 12.288 12.288 12.288 31.744 0 44.032l-67.072 67.584z"  horiz-adv-x="1024" />

    
    <glyph glyph-name="zhengfuyugonggonganquan" unicode="&#58896;" d="M986.255-30.294h-61.781l-1.018 502.975h62.8a36.093 36.093 0 0 1 20.485 65.809l-472.9 326.003a36.095 36.095 0 0 1-40.844 0.087L15.758 538.577a36.096 36.096 0 0 1 20.36-65.896h67.603v-502.975H36.118c-19.934 0-36.094-16.16-36.094-36.094s16.16-36.093 36.094-36.093h950.137c19.934 0 36.093 16.159 36.093 36.093s-16.159 36.094-36.093 36.094z m-133.967 0H675.12L674.1 472.68H851.27l1.019-502.975zM601.915 472.68l1.02-502.975H425.768L424.75 472.68h177.165z m-88.652 318.321l357.044-246.135H152.942l360.32 246.135zM175.906 472.681h176.657l1.019-502.975H175.906V472.68z"  horiz-adv-x="1024" />

    
    <glyph glyph-name="sousuo1" unicode="&#58897;" d="M448 768a320 320 0 1 1 193.92-574.293l181.333-181.12a42.667 42.667 0 0 1 60.16 60.16L702.08 254.08A320 320 0 0 1 448 768z m0-554.667A234.667 234.667 0 1 0 682.667 448 234.667 234.667 0 0 0 448 213.333z"  horiz-adv-x="1024" />

    
    <glyph glyph-name="jiaoyujiaoxue" unicode="&#58899;" d="M943.543 435.2V881.371C943.543 888.686 936.229 896 928.914 896H248.686c-7.315 0-14.629-7.314-14.629-14.629v-131.657c0-7.314 0-7.314-7.314-7.314H95.086c-7.315 0-14.629-7.314-14.629-14.629V435.2c0-7.314 0-7.314-7.314-7.314H14.629C7.314 427.886 0 420.57 0 413.257v-512c0-7.314 7.314-14.628 14.629-14.628h994.742c7.315 0 14.629 7.314 14.629 14.628v512c0 7.314-7.314 14.629-14.629 14.629h-58.514s-7.314 0-7.314 7.314zM321.829 815.543H855.77c7.315 0 7.315 0 7.315-7.314V435.2c0-7.314 0-7.314-7.315-7.314H321.83c-7.315 0-7.315 0-7.315 7.314V808.229c0 7.314 7.315 7.314 7.315 7.314z m-160.915-153.6h58.515c7.314 0 7.314 0 7.314-7.314V435.2c0-7.314 0-7.314-7.314-7.314h-58.515c-7.314 0-7.314 0-7.314 7.314V654.629c0 7.314 7.314 7.314 7.314 7.314zM936.23-40.23H87.77c-7.314 0-7.314 0-7.314 7.315V340.114c0 7.315 0 7.315 7.314 7.315H936.23c7.314 0 7.314 0 7.314-7.315v-373.028s0-7.315-7.314-7.315zM234.057 164.571h475.429c7.314 0 7.314 0 7.314-7.314v-58.514c0-7.314 0-7.314 7.314-7.314h65.829c7.314 0 7.314 0 7.314 7.314v204.8c7.314 7.314 7.314 7.314 0 7.314H731.43c-7.315 0-7.315 0-7.315-7.314v-58.514c0-7.315-7.314-7.315-7.314-7.315H234.057s-7.314 0-7.314 7.315v58.514c0 7.314 0 7.314-7.314 7.314H153.6c-7.314 0-7.314 0-7.314-7.314v-204.8c0-7.314 0-7.314 7.314-7.314h65.829c7.314 0 7.314 0 7.314 7.314v58.514c0 7.314 7.314 7.314 7.314 7.314z m197.486 585.143H358.4s-7.314 0-7.314-7.314v-58.514c0-7.315 7.314-7.315 7.314-7.315h65.829c7.314 0 14.628 0 14.628 7.315V742.4c0 7.314-7.314 7.314-7.314 7.314zM358.4 530.286h65.829c7.314 0 14.628 0 14.628 7.314v58.514c0 7.315-7.314 7.315-7.314 7.315H358.4s-7.314 0-7.314-7.315V537.6c0-7.314 7.314-7.314 7.314-7.314zM526.629 676.57h234.057c7.314 0 7.314 0 7.314 7.315V742.4c0 7.314 0 7.314-7.314 7.314H526.629c-7.315 0-7.315 0-7.315-7.314v-58.514c0-7.315 0-7.315 7.315-7.315z m0-146.285h234.057c7.314 0 7.314 0 7.314 7.314v58.514c0 7.315 0 7.315-7.314 7.315H526.629c-7.315 0-7.315 0-7.315-7.315V537.6c0-7.314 0-7.314 7.315-7.314z"  horiz-adv-x="1024" />

    
    <glyph glyph-name="guangbodianshi" unicode="&#58900;" d="M310.218 477.106h66.949L347.379 297.28h75.551l29.149 179.827h67.588l10.47 64.322H320.689l-10.47-64.322z m325.653-97.881l-13.026 162.202h-75.847l38.095-244.148h75.551l119.644 244.148h-75.55L635.87 379.225z m-0.934-269.53H392.602c-11.798 0-21.383-10.237-21.383-22.848 0-12.611 9.585-22.848 21.383-22.848h242.335c11.797 0 21.382 10.237 21.382 22.848s-9.536 22.848-21.382 22.848zM864 704H160s-32 0-32-32v-480c0-32 32-32 32-32h704s32 0 32 32V672c0 32-32 32-32 32z m0-512H160V672h704v-480z"  horiz-adv-x="1024" />

    
    <glyph glyph-name="chanpinbaoxiuzhengce" unicode="&#58901;" d="M492.775037 890.82704A38.399926 38.399926 0 0 0 527.999969 892.517037C629.783773 845.822127 758.319526 818.302179 870.395311 819.198178h38.399926a89.599828 89.599828 0 0 0 89.598827-89.599828v-473.593089c0-101.681804-71.422863-212.119592-164.426683-253.053513L526.769972-125.045006a38.399926 38.399926 0 0 0-29.541944 0L189.341621 3.259747C97.028798 43.886669 25.605936 154.298457 25.605936 256.006261V729.60035a89.599828 89.599828 0 0 0 89.599827 89.598828h63.997877c98.76381 0 244.37553 31.589939 313.571397 71.627862z m20.81196-75.877854l-8.242984-3.992992c-86.526834-40.472922-225.661566-68.555868-326.139373-68.555869h-63.999877a12.799975 12.799975 0 0 1-12.799975-12.799975v-473.594089c0-71.346863 53.554897-154.135703 117.169775-182.141649L512-47.990154l291.734439 121.546766C866.094319 100.999559 918.344218 179.693408 921.441212 249.479274l0.154 6.527987V729.60035a12.799975 12.799975 0 0 1-12.799975 12.799975l-52.939899 0.025c-109.36179 1.279998-230.243557 26.23995-332.46336 68.350869l-9.804981 4.172992z m160.254692-170.595672l5.682989-0.128c16.536968-0.819998 28.439945-5.37599 35.710931-13.669973 8.063984-9.189982 12.108977-24.499953 12.108977-45.899912v-79.410847l-0.102-5.913989c-0.691999-17.304967-4.403992-30.335942-11.161979-39.141925-7.499986-9.752981-21.579958-14.642972-42.239918-14.642971h-67.58287v-41.112921h140.23573l4.350992-0.102c9.676981-0.589999 16.486968-3.174994 20.42996-7.782985 4.504991-5.24799 6.756987-13.311974 6.756987-24.216954 0-10.13798-2.354995-17.919966-7.039986-23.372955-4.683991-5.42699-12.849975-8.165984-24.497953-8.165984H645.681743l9.215982-11.212978a587.819869 587.819869 0 0 1 45.976912-49.329905c18.405965-17.459966 34.354934-31.05294 47.870908-40.831922 9.010983-6.757987 15.948969-12.952975 20.837959-18.584964 4.863991-5.631989 7.987985-10.879979 9.292983-15.76997a23.449955 23.449955 0 0 0-0.562999-14.335972 73.393859 73.393859 0 0 0-8.165985-15.51297c-7.500986-10.13798-16.127969-13.874973-25.90695-11.263979-9.753981 2.636995-20.65996 9.010983-32.664937 19.148964-24.396953 19.915962-44.876914 38.961925-61.388882 57.16389a433.121167 433.121167 0 0 0-43.928915 57.16389v-141.924727l-0.102-4.351992c-0.511999-9.727981-2.713995-16.818968-6.655987-21.247959-4.505991-5.09399-12.210977-7.627985-23.090956-7.627985-10.49598 0-18.687964 2.559995-24.498953 7.602985-5.810989 5.06899-8.729983 13.618974-8.729983 25.624951v118.269772l-6.475988-9.086982a287.932446 287.932446 0 0 0-29.285943-33.714936c-13.311974-13.131975-30.130942-28.159946-50.405903-45.054913-16.511968-12.748975-30.028942-19.890962-40.549922-21.401959-10.49598-1.484997-18.943964 2.457995-25.343951 11.826978a68.299869 68.299869 0 0 0-6.757987 14.079972 23.935954 23.935954 0 0 0-0.282 14.079973 39.935923 39.935923 0 0 0 8.729983 15.205971c4.504991 5.27399 11.263978 11.084979 20.274961 17.459966 6.399988 4.504991 13.899973 10.34198 22.526957 17.457967a528.556983 528.556983 0 0 1 55.192894 53.503897 439.144155 439.144155 0 0 1 26.469949 32.664937h-91.236825l-4.351991 0.128c-9.727981 0.613999-16.843968 3.276994-21.272959 8.037984-5.06899 5.45299-7.602985 13.234975-7.602986 23.372955 0 10.904979 2.354995 18.969964 7.039987 24.216954 4.683991 5.27399 13.413974 7.884985 26.187949 7.884985H543.17994v41.112921h-59.697885l-5.47799 0.127999c-17.740966 0.819998-30.259942 5.631989-37.605927 14.514972-8.063984 9.779981-12.109977 24.779952-12.109977 45.055914v79.972846l0.129 5.939988c0.716999 17.279967 4.709991 30.206942 11.979977 38.833926 8.063984 9.573982 22.425957 14.361972 43.084917 14.361972h190.359634z m-322.70938 12.671976c5.24699 6.962987 14.462972 9.675981 27.595947 8.190984 12.389976-1.893996 19.889962-7.346986 22.527957-16.357969 2.635995-9.009983 1.689997-21.963958-2.815995-38.859925-5.631989-21.401959-11.161979-40.908921-16.614968-58.571887-5.45199-17.638966-11.365978-34.533934-17.739965-50.687903v-341.858342l-0.103-4.223992c-1.099998-20.453961-10.46998-30.693941-28.056946-30.693941-12.031977 0-20.274961 2.815995-24.779953 8.447984-4.505991 5.631989-6.758987 14.463972-6.758987 26.469949V376.836029l-2.917994-4.095992c-8.703983-11.646978-17.151967-18.072965-25.241951-19.275963-9.009983-1.305997-17.279967 1.228998-24.779953 7.602985-9.753981 6.757987-14.642972 14.847971-14.642972 24.216954 0 9.394982 5.45299 21.964958 16.332969 37.733927a467.7061 467.7061 0 0 1 52.657899 96.306815c12.953975 32.664937 23.935954 67.58287 32.946936 104.753798 2.994994 15.026971 7.141986 26.00895 12.389976 32.946937z m293.422436-76.875852H511.078002l-3.531993-0.077c-5.503989-0.281999-9.113982-1.279998-10.82898-3.020994-2.047996-2.047996-3.097994-6.476988-3.097994-13.234975v-30.97594l0.103-3.532994c0.357999-6.731987 1.816997-11.467978 4.402992-14.206972 2.994994-3.174994 8.268984-4.787991 15.769969-4.787991h130.659749c6.758987 0 11.366978 1.689997 13.798973 5.06999 2.431995 3.377994 3.659993 9.393982 3.659993 18.020966v25.90695l-0.075999 3.916992c-0.307999 6.143988-1.279998 10.36798-3.020995 12.697976-2.047996 2.815995-6.859987 4.223992-14.361972 4.223992z"  horiz-adv-x="1024" />

    
    <glyph glyph-name="changjianwenti" unicode="&#58902;" d="M934.054-8.995l-164.67 163.287c136.994 164.67 121.773 408.216-35.979 552.13-157.75 145.297-401.297 139.762-553.513-11.07S23.524 299.588 167.438 141.837c145.297-157.752 387.46-174.357 552.13-35.979l164.67-164.67c13.838-12.454 35.978-12.454 48.432 1.384 13.838 12.454 13.838 34.595 1.384 48.432z m-801.21 420.67c0 182.66 148.064 330.725 330.724 330.725s329.34-148.065 330.724-330.724c0-182.66-148.065-329.34-330.724-330.725-182.66 1.384-330.725 148.065-330.725 330.725z m0 0M448.346 619.243c-70.573 0-127.308-56.735-127.308-127.308 1.384-16.605 13.838-29.06 30.443-29.06 16.605 0 29.06 12.455 30.443 29.06 1.384 34.595 30.444 63.654 66.422 63.654 34.595 0 63.654-27.675 66.422-63.654 0-23.524-12.454-45.665-33.211-56.735-1.384-1.384-2.768-1.384-4.152-2.768a126.478 126.478 0 0 1-59.502-107.935c0-2.767 0-5.535 1.383-9.686 4.152-15.222 19.373-24.908 34.595-22.14 15.222 2.767 26.292 16.605 24.908 33.21 0 23.524 12.454 44.281 33.211 55.351 0 0 1.384 0 1.384 1.384 38.746 23.525 60.886 63.654 60.886 109.32 0 70.572-56.735 127.307-125.924 127.307zM410.984 219.33c0-20.757 16.605-37.362 37.362-37.362s37.362 16.605 37.362 37.362c-1.384 19.373-16.605 35.978-37.362 35.978s-37.362-15.222-37.362-35.978z m0 0"  horiz-adv-x="1024" />

    
    <glyph glyph-name="jishuzhichi" unicode="&#58903;" d="M1032.393 375.607V190.95a75.541 75.541 0 0 0-75.54-75.541H839.343a41.967 41.967 0 0 0-41.967 41.967V409.18a41.967 41.967 0 0 0 41.967 41.968h41.514c0.302 5.59 0.453 11.18 0.453 16.786 0 185.193-161.49 335.738-360.918 335.738S159.475 653.127 159.475 467.934c0-5.606 0.151-11.196 0.454-16.786h41.514a41.967 41.967 0 0 0 41.967-41.968v-235.016c3.609-2.686 6.765-5.976 9.367-9.736a344.635 344.635 0 0 1 193.3-136.898 92.328 92.328 0 1 0-13.563-83.195A428.57 428.57 0 0 0 184.622 115.41H83.934a75.541 75.541 0 0 0-75.54 75.54V375.608a75.541 75.541 0 0 0 67.516 75.12 402.751 402.751 0 0 0-0.369 17.207c0 231.86 199.227 419.673 444.852 419.673s444.853-187.812 444.853-419.673c0-5.74-0.118-11.482-0.37-17.206a75.541 75.541 0 0 0 67.517-75.121zM92.328 199.344h67.147v167.87H92.328v-167.87z m856.131 0v167.87h-67.148v-167.87h67.148z"  horiz-adv-x="1040" />

    
    <glyph glyph-name="qita1" unicode="&#58904;" d="M305.4 383.9h165.5c22.9 0 41.4 18.5 41.4 41.4s-18.5 41.4-41.4 41.4H305.4c-22.9 0-41.4-18.5-41.4-41.4s18.5-41.4 41.4-41.4z m538 413.9H388.1s-41.4 1.8-41.4-41.4c0-43.2 41.4-41.4 41.4-41.4h455.3v-496.6H802s-41.4 1-41.4-41.4 41.4-41.4 41.4-41.4h41.4c45.7 0 82.8 37.1 82.8 82.8V715c0 45.7-37.1 82.8-82.8 82.8zM595.1 632.2H181.2c-45.7 0-82.8-37.1-82.8-82.8v-496.6c0-45.7 37.1-82.8 82.8-82.8h413.9c45.7 0 82.8 37.1 82.8 82.8V549.4c-0.1 45.8-37.1 82.8-82.8 82.8z m0-579.4H181.2V549.4h413.9v-496.6zM305.4 218.3h165.5c22.9 0 41.4 18.5 41.4 41.4s-18.5 41.4-41.4 41.4H305.4c-22.9 0-41.4-18.5-41.4-41.4 0-22.8 18.5-41.4 41.4-41.4z"  horiz-adv-x="1024" />

    
    <glyph glyph-name="tiwenti" unicode="&#58905;" d="M292.587997 896h438.783996A292.587997 292.587997 0 0 0 1023.99999 603.412003v-438.783996A292.587997 292.587997 0 0 0 731.411993-127.99999H292.627997A292.587997 292.587997 0 0 0 0 164.588007V603.372003A292.587997 292.587997 0 0 0 292.587997 896z m0-93.104999A199.482998 199.482998 0 0 1 93.104999 603.412003v-438.783996a199.482998 199.482998 0 0 1 199.482998-199.482998h438.783996a199.482998 199.482998 0 0 1 199.482998 199.482998V603.372003A199.482998 199.482998 0 0 1 731.371993 802.855001H292.627997z m205.705998-607.507994c17.093 0 31.744-5.12 43.166-16.975 11.421-11.027 17.093-25.442 17.093-43.244s-5.711-32.217-17.093-44.109999c-12.21-11.028-26.9-16.936-43.166-16.936-17.093 0-30.956 5.908-41.510999 17.802a57.697999 57.697999 0 0 0-17.92 43.243999c0 17.802 5.71 32.217 17.92 43.244 10.555 11.855 24.418 16.936 41.510999 16.936z m22.646 511.999995c55.335999 0 99.642999-14.69 133.671999-45.725 33.2-30.208 50.215-71.640999 50.214999-123.391999 0-42.26-11.028-77.627999-31.508-105.235998-7.64-9.492-31.507-31.902-72.349999-67.308-15.36-13.785-27.253-28.476-34.894-43.992999-9.373-17.25-13.627-36.234-13.626999-57.817v-14.65h-91.097v14.65c0 31.902 5.12 59.549999 16.148 81.959999 11.934 24.182 44.308 59.549999 97.082999 107.007999l14.454 16.384c15.36 19.85 23 40.566 23 62.976 0 30.168-8.506 53.483999-24.693 70.733999-17.014 17.25-40.881 25.876-71.522999 25.876-38.282 0-66.401999-12.09-83.415999-36.234-15.36-20.716-23-50.885-23-88.850999h-90.230999c0 62.975999 17.88 112.166999 54.468999 148.399998 35.761 37.101 85.149999 55.217999 147.297999 55.218z"  horiz-adv-x="1024" />

    
    <glyph glyph-name="tingchanchanpin" unicode="&#58906;" d="M953.6 217.6l-76.8 44.8c-19.2 12.8-44.8 6.4-57.6-12.8-12.8-19.2-6.4-44.8 12.8-57.6l12.8-6.4-332.8-192-332.8 192H192c19.2 12.8 25.6 38.4 12.8 57.6 0 12.8-12.8 19.2-19.2 19.2-12.8 0-25.6 0-32-6.4l-76.8-44.8C64 204.8 57.6 192 57.6 172.8c0-12.8 6.4-32 19.2-38.4l416-236.8c6.4-6.4 12.8-6.4 19.2-6.4 6.4 0 12.8 0 19.2 6.4l416 236.8c12.8 6.4 19.2 19.2 19.2 38.4 6.4 19.2 0 32-12.8 44.8zM70.4 531.2L480 294.4c6.4 0 12.8-6.4 12.8-6.4h25.6c6.4 0 12.8 6.4 12.8 6.4l416 236.8c12.8 6.4 19.2 19.2 19.2 38.4s-6.4 32-19.2 38.4L544 838.4c-19.2 12.8-44.8 12.8-64 0L70.4 601.6c-12.8-6.4-19.2-19.2-19.2-38.4 0-12.8 6.4-25.6 19.2-32z m108.8 32l332.8 192 332.8-192L512 377.6 179.2 563.2zM217.6 416c0 12.8-12.8 32-25.6 38.4-12.8 6.4-32 6.4-44.8 0l-76.8-44.8c-12.8-6.4-19.2-25.6-19.2-38.4s6.4-32 19.2-38.4l416-236.8c6.4-6.4 12.8-6.4 19.2-6.4 6.4 0 12.8 0 19.2 6.4l416 236.8c12.8 6.4 19.2 19.2 19.2 38.4s-6.4 32-19.2 38.4L864 454.4c-12.8 6.4-32 6.4-44.8 0C806.4 448 800 435.2 800 416c0-12.8 6.4-32 19.2-38.4l12.8-6.4-332.8-192-332.8 192 25.6 6.4c12.8 6.4 25.6 25.6 25.6 38.4z"  horiz-adv-x="1024" />

    
    <glyph glyph-name="wentipaichu" unicode="&#58907;" d="M934.054-8.995l-164.67 163.287c136.994 164.67 121.773 408.216-35.979 552.13-157.75 145.297-401.297 139.762-553.513-11.07S23.524 299.588 167.438 141.837c145.297-157.752 387.46-174.357 552.13-35.979l164.67-164.67c13.838-12.454 35.978-12.454 48.432 1.384 13.838 12.454 13.838 34.595 1.384 48.432z m-801.21 420.67c0 182.66 148.064 330.725 330.724 330.725s329.34-148.065 330.724-330.724c0-182.66-148.065-329.34-330.724-330.725-182.66 1.384-330.725 148.065-330.725 330.725z m0 0M448.346 619.243c-70.573 0-127.308-56.735-127.308-127.308 1.384-16.605 13.838-29.06 30.443-29.06 16.605 0 29.06 12.455 30.443 29.06 1.384 34.595 30.444 63.654 66.422 63.654 34.595 0 63.654-27.675 66.422-63.654 0-23.524-12.454-45.665-33.211-56.735-1.384-1.384-2.768-1.384-4.152-2.768a126.478 126.478 0 0 1-59.502-107.935c0-2.767 0-5.535 1.383-9.686 4.152-15.222 19.373-24.908 34.595-22.14 15.222 2.767 26.292 16.605 24.908 33.21 0 23.524 12.454 44.281 33.211 55.351 0 0 1.384 0 1.384 1.384 38.746 23.525 60.886 63.654 60.886 109.32 0 70.572-56.735 127.307-125.924 127.307zM410.984 219.33c0-20.757 16.605-37.362 37.362-37.362s37.362 16.605 37.362 37.362c-1.384 19.373-16.605 35.978-37.362 35.978s-37.362-15.222-37.362-35.978z m0 0"  horiz-adv-x="1024" />

    
    <glyph glyph-name="zhengpinchaxun" unicode="&#58908;" d="M849.627 887.735H170.423A163.84 163.84 0 0 1 6.949 724.115v-679.132a163.84 163.84 0 0 1 163.474-163.474h399.872a32.183 32.183 0 0 1 7.9-0.732h74.24c21.21-0.585 38.4 15.945 39.058 37.157a37.888 37.888 0 0 1-37.084 39.058H190.318c-61.587 0-111.177 49.59-111.177 111.177V705.682c0 61.587 49.59 111.177 111.177 111.177H830.39c61.586 0 111.177-49.59 111.177-111.177v-481.865c0-21.211 15.945-37.742 35.84-37.742 19.749 0 35.694 17.189 35.694 37.742V724.114c0 90.04-72.777 163.548-163.475 163.548zM733.77 204.58a287.013 287.013 0 0 1-223.086 467.968A287.598 287.598 0 0 1 222.72 385.317 287.013 287.013 0 0 1 510.025 98.01c64.22 0 123.1 21.212 170.789 56.32l201.874-201.874a36.571 36.571 0 0 1 52.955 50.25l-1.316 1.316L733.769 204.58z m-223.744-35.109a214.894 214.894 0 0 0-218.404 212.553A214.894 214.894 0 0 0 504.1 600.43h6.582a215.698 215.698 0 0 0 212.48-218.405 216.795 216.795 0 0 0-213.138-212.48z"  horiz-adv-x="1024" />

    
    <glyph glyph-name="ziliaoxiazai" unicode="&#58909;" d="M315.05 203.093h384v-72.021h-384v72.021zM800.085-128h-576.17A223.915 223.915 0 0 0 0 95.915v576.17A223.915 223.915 0 0 0 223.915 896h576.17A223.915 223.915 0 0 0 1024 672.085v-576.17A223.915 223.915 0 0 0 800.085-128zM223.915 831.83A160.085 160.085 0 0 1 64.17 672.084v-576.17A160.085 160.085 0 0 1 223.915-63.83h576.17A160.085 160.085 0 0 1 959.83 95.915v576.17A160.085 160.085 0 0 1 800.085 831.83zM617.13 457.728a34.133 34.133 0 0 1-47.786 0l-30.72-30.72V611.669a34.133 34.133 0 0 1-34.133 34.134h-9.558a34.133 34.133 0 0 1-34.133-34.134v-184.661l-30.72 30.72a34.133 34.133 0 0 1-47.787 0 34.133 34.133 0 0 1 0-48.128l95.574-93.867a34.133 34.133 0 0 1 47.786 0l93.184 92.843a34.133 34.133 0 0 1 0 48.128z"  horiz-adv-x="1024" />

    
    <glyph glyph-name="xinwen" unicode="&#58910;" d="M267.044-31.521c-43.966 0-85.391 17.281-116.778 48.54s-48.54 72.812-48.54 116.779V634.202c0 43.967 17.28 85.392 48.54 116.778s72.812 48.541 116.778 48.541H767.45c43.966 0 85.392-17.281 116.778-48.54s48.541-72.812 48.541-116.779v-500.404c0-43.967-17.282-85.392-48.541-116.778s-72.812-48.541-116.905-48.541H267.044z m28.718 767.507c-71.922 0-130.501-58.58-130.501-130.502v-442.968c0-71.922 58.58-130.502 130.501-130.502h442.969c69.762 0 126.944 55.149 130.375 124.148h0.127l0.127 6.354V605.484c-0.127 71.922-58.58 130.502-130.502 130.502H295.762zM327.022 327.326c-41.552 0-75.226 33.801-75.226 75.226V530.386c0 41.552 33.8 75.225 75.226 75.225h127.833c41.552 0 75.226-33.8 75.226-75.225v-127.834c0-41.552-33.801-75.226-75.226-75.226H327.022z m11.944 229.617c-21.348 0-38.63-17.281-38.63-38.63V414.37c0-21.348 17.282-38.63 38.63-38.63H442.91c21.348 0 38.63 17.282 38.63 38.63V518.314c0 21.348-17.282 38.63-38.63 38.63H338.966z m420.223-50.955H601.495c-11.183 0-20.332 9.149-20.332 20.331s9.15 20.332 20.332 20.332h157.821c11.183 0 20.332-9.15 20.332-20.332-0.127-11.182-9.276-20.331-20.459-20.331z m-12.071-304.97h-426.45c-13.978 0-25.414 9.15-25.414 20.331s11.436 20.332 25.414 20.332h426.577c13.978 0 25.414-9.15 25.414-20.332-0.127-11.182-11.564-20.33-25.541-20.33zM759.189 384H601.495c-11.183 0-20.332 9.15-20.332 20.331s9.15 20.332 20.332 20.332h157.821c11.183 0 20.332-9.15 20.332-20.332C779.52 393.15 770.372 384 759.189 384z"  horiz-adv-x="1024" />

    
    <glyph glyph-name="xinwen1" unicode="&#58911;" d="M994 654H766V832c0 16.568-13.432 30-30 30H30C13.432 862 0 848.568 0 832v-776c0-82.71 67.29-150 150-150h724c82.71 0 150 67.29 150 150V624c0 16.568-13.432 30-30 30zM150-34c-49.626 0-90 40.374-90 90V802h646c0-792.932-0.378-748.848 0.688-760.154A149.528 149.528 0 0 1 736.07-34z m814 90c0-49.626-40.374-90-90-90h-18c-49.626 0-90 40.374-90 90V594h198zM608 718H160c-16.568 0-30-13.432-30-30s13.432-30 30-30h448c16.568 0 30 13.432 30 30s-13.432 30-30 30zM608 590H160c-16.568 0-30-13.432-30-30s13.432-30 30-30h448c16.568 0 30 13.432 30 30s-13.432 30-30 30zM608 110H160c-16.568 0-30-13.432-30-30s13.432-30 30-30h448c16.568 0 30 13.432 30 30s-13.432 30-30 30zM608 462H384c-16.568 0-30-13.432-30-30v-224c0-16.568 13.432-30 30-30h224c16.568 0 30 13.432 30 30V432c0 16.568-13.432 30-30 30z m-30-224h-164v164h164zM160 354h96c16.568 0 30 13.432 30 30s-13.432 30-30 30H160c-16.568 0-30-13.432-30-30s13.432-30 30-30zM160 226h96c16.568 0 30 13.432 30 30s-13.432 30-30 30H160c-16.568 0-30-13.432-30-30s13.432-30 30-30z"  horiz-adv-x="1024" />

    
    <glyph glyph-name="dianshi" unicode="&#58912;" d="M1045.087 895.128H165.812A147.456 147.456 0 0 1 18.508 747.823V161.64a147.456 147.456 0 0 1 147.304-147.304h879.313a147.494 147.494 0 0 1 147.304 147.304V747.823A147.494 147.494 0 0 1 1045.087 895.128z m72.552-733.488a72.628 72.628 0 0 0-72.552-72.514H165.812a72.59 72.59 0 0 0-72.514 72.514V747.823c0 39.974 32.54 72.515 72.514 72.515h879.313c39.974 0 72.514-32.54 72.514-72.515V161.64zM935.215-20.783a37.395 37.395 0 0 0 0-74.79H275.721a37.395 37.395 0 0 0 0 74.79h659.532z m-403 586.183H312.358a37.395 37.395 0 0 1 0-74.79h72.514v-182.424a37.395 37.395 0 0 1 74.79 0V490.61h72.553a37.395 37.395 0 0 1 0 74.79z m359.006-4.134a37.47 37.47 0 0 1-50.365-16.157l-79.683-155.117-79.682 155.117a37.433 37.433 0 0 1-66.56-34.209l112.981-219.819a37.395 37.395 0 0 1 66.522 0l112.982 219.82a37.395 37.395 0 0 1-16.195 50.365z"  horiz-adv-x="1213" />

    
    <glyph glyph-name="jiantouyou1" unicode="&#58913;" d="M394.10599999-28.553999999999974c-12.446 0-23.237 5.093-32.37299998 15.276-9.135 10.183-13.67100001 22.294-13.60900001 36.333l1e-8 722.491c0 13.967 4.538 26.079 13.60899999 36.331 9.074 10.252 19.863 15.34400001 32.373 15.276 12.506-0.069 23.298-5.162 32.371-15.276L748.353 420.631c9.074-10.183 13.61-22.293 13.61-36.332 0-14.036-4.538-26.145-13.61000001-36.331L426.477-13.27800000000002c-9.073-10.183-19.865-15.277-32.371-15.277z"  horiz-adv-x="1024" />

    
    <glyph glyph-name="jiantouyouzuo" unicode="&#58914;" d="M289.53100001-18.375c-23.906 22.969-23.43700001 61.406-1e-8 84.844L607.156 384l-317.625 317.531c-23.437 23.438-23.437 61.407 1e-8 84.844s61.407 23.437 84.84399999 0l360.094-360c12.844-11.344 32.062-50.531-1e-8-84.844l-360.09399999-360c-16.969-17.90599999-55.406-28.219-84.84399999 0.094z"  horiz-adv-x="1024" />

    
    <glyph glyph-name="wentipaichu1" unicode="&#58915;" d="M901.803 460.63c-22.358 43.349-47.616 92.5-64.854 137.898C791.381 719.701 713.045 843.776 476.501 843.776c-245.93 0-403.114-213.675-403.114-360.79 0-131.242 58.538-227.669 97.109-291.498 16.896-27.99 30.208-50.005 30.037-61.781v-185.003c0-10.752 13.824-20.48 27.819-20.48 16.213 0 29.867 6.827 29.867 20.31V129.706c0 22.528-17.92 56.149-40.96 98.816-36.182 67.584-85.846 159.914-86.187 254.464-0.853 158.549 171.52 290.645 323.755 302.08v-254.123C389.973 519.509 341.845 457.728 341.845 384c0-77.653 59.392-136.021 138.24-136.021 28.672 0 56.15 8.533 79.872 24.746l60.928-43.178c-1.706-28.16 22.187-52.054 50.006-52.054 27.648 0 50.176 22.528 50.176 50.006 0 33.792-32.768 57.344-64.512 47.786l-55.808 39.424c14.165 22.528 21.504 48.128 21.504 74.752 0 64.683-45.568 122.027-109.227 138.752v256c136.704-10.24 229.035-80.896 267.435-204.8 10.581-34.645 45.056-96.426 72.704-146.09 18.09-32.598 38.57-69.462 39.936-77.142-4.267-9.216-51.883-32.938-94.038-49.834l-4.949-1.878v-118.272c0-1.024-0.683-25.258-26.112-51.2-23.723-24.405-78.848-25.941-79.36-25.941h-64.17v-164.352l0.511-1.365c2.731-6.998 11.435-18.944 26.624-18.944 21.334 0 29.184 13.312 30.55 20.48l0.17 106.325c18.774-0.512 65.195 1.877 109.398 29.867 60.757 38.57 60.245 102.741 60.074 105.472v79.189c21.846 7.68 94.208 35.84 98.816 75.264 2.048 19.456-16.213 56.32-48.81 119.637z m-337.579-71.34c0-46.42-37.888-83.967-84.139-83.967-46.421 0-84.309 37.717-84.309 83.968 0 46.25 37.717 83.968 84.139 83.968 46.421-0.171 84.309-37.718 84.309-83.968z"  horiz-adv-x="1024" />

    
    <glyph glyph-name="shipinxinhaochuli1" unicode="&#58916;" d="M304.128 715.264h576v-508.928h-64V651.264H335.872v-128L143.872 715.264zM719.872 52.736H143.872V561.664h64v-444.928h480.256v128l192-192zM499.2 411.136v-96.256l76.8 48.128-76.8 48.128z m-51.2 112.128c3.072 0 6.656 0 9.728 3.072l220.672-143.872c9.728-6.656 9.728-22.528 0-28.672L457.728 209.92c-3.072-3.072-6.656-3.072-9.728-3.072-6.656 0-15.872 6.656-15.872 15.872V506.88c0 9.728 9.728 16.384 15.872 16.384z"  horiz-adv-x="1024" />

    
    <glyph glyph-name="dianhua" unicode="&#58917;" d="M154.408 847.117l-1.24-1.024a54.299 54.299 0 0 1-1.373-0.916l-3.072-2.263a36.648 36.648 0 0 1-7.627-8.327l-0.62-1.051-82.512-82.567c-100.46-100.46 15.225-334.82 251.419-570.907l16.923-16.734c228.567-223.016 451.718-329.782 550.184-235.089l87.471 87.471c49.718 47.32 51.712 126.922 3.827 177.233l-10.186 10.24-2.803 2.506-130.668 103.882c-50.122 38.104-122.287 33.065-167.208-13.204l-36.487-36.514-3.503 2.21a727.579 727.579 0 0 0-222.397 222.505l-3.018 4.823 34.682 38.993-0.593-0.593a127.003 127.003 0 0 1 8.677 172.975L334.956 825.694a129.213 129.213 0 0 1-180.548 21.423z m129.94-61.709L387.18 656.061c15.737-21.666 16.114-49.96 2.129-71.303l-2.048-2.83-75.507-84.938 11.803-20.237A792.253 792.253 0 0 1 609.091 191.11l21.531-12.558 72.38 72.435 3.558 3.395a62.302 62.302 0 0 0 81.57 1.186l124.9-99.301 7.923-7.896a61.09 61.09 0 0 0-2.156-86.366l-87.578-87.58c-61.818-59.445-266.24 41.5-476.134 251.366l-8.623 8.677C141.07 442.611 42.765 644.285 103.747 705.213l91.89 91.998-1.454-1.078a64.539 64.539 0 0 0 90.166-10.698z"  horiz-adv-x="1024" />

    
    <glyph glyph-name="xiaoshou" unicode="&#58918;" d="M511.9-63.4c-1.9 0-3.7 0-5.6 0.1-0.7 0-1.4-0.1-2.1-0.1-1.5 0-3 0.1-4.6 0.1-209.4 2.5-377.2 69.5-377.2 151.7 0 32.1 25.6 61.8 69.1 86.3 33.6 44.6 101.4 80.3 186.7 98.3l65-245.4h6.9l55.3 122.1c-26.4 3.3-46.9 25.4-46.9 52.5 0 29.3 23.9 53.1 53.5 53.1 29.5 0 53.5-23.8 53.5-53.1 0-27.1-20.5-49.2-46.9-52.5l55.3-122.1h6.9l64.1 242.1c70-16.8 126.9-45.8 160.9-81.7 59.6-26.7 95.8-61.5 95.8-99.6-0.2-83.8-174.6-151.8-389.7-151.8z m98 439.1c0.8-4.6 1.3-9.2 1.3-14 0-50.3-44.4-91.1-99.3-91.1-54.8 0-99.3 40.8-99.3 91.1 0 4.8 0.5 9.4 1.3 14-64.4 41.1-108.2 121.4-108.2 213.8 0 134.2 92.3 242.9 206.2 242.9 113.9 0 206.2-108.8 206.2-242.9 0-92.4-43.7-172.7-108.2-213.8z"  horiz-adv-x="1024" />

    
    <glyph glyph-name="youxiang" unicode="&#58919;" d="M149.6 724.2h691.9c47.2 0 85.9-37.7 86.5-83.9L495.7 403 63.5 640c0.4 46.4 38.8 84.2 86.1 84.2z m-86.1-175l-0.4-419.6c0-46.7 38.9-84.9 86.5-84.9h691.9c47.6 0 86.5 38.2 86.5 84.9V549.4L505.9 323.20000000000005c-6.5-3.5-14.3-3.5-20.7 0l-421.7 226z"  horiz-adv-x="1024" />

    
    <glyph glyph-name="dianhua1" unicode="&#58920;" d="M594.651 187.10000000000002l27.795 17.261c10.898 6.583 19.821 11.484 28.818 15.506 62.903 28.672 118.491 8.412 191.927-77.458 45.422-53.102 58.88-100.206 41.326-142.19-13.02-31.378-38.181-53.028-83.018-79.725-2.925-1.756-28.745-16.823-35.328-20.846-104.301-64.366-343.405 82.944-515.364 334.702C78.409 486.766 33.792 755.9300000000001 139.483 821.248l13.898 8.777 15.213 9.874C221.99 874.496 256.22 888.32 296.814 881.445c40.52-6.949 74.971-36.938 104.009-91.502 61.44-115.493 47.908-170.277-31.159-220.014-5.705-3.657-25.893-15.872-27.794-17.042-19.31-11.996 13.458-92.38 89.746-204.069 77.312-112.932 141.897-174.738 163.035-161.572z"  horiz-adv-x="1024" />

    
    <glyph glyph-name="jishuzhichi1" unicode="&#58921;" d="M597.086 217.29c-0.567 8.577 0 17.027 0.221 25.603a3.342 3.342 0 0 1-1.04 0.22 39.885 39.885 0 0 0-32.917 39.003v24.278a40.642 40.642 0 0 0 14.976 30.867 407.806 407.806 0 0 1 122.682 296.38C701.008 800.465 596.74 895.937 468.224 895.937S235.44 800.465 235.44 633.64a413.04 413.04 0 0 1 115.147-289.412 40.453 40.453 0 0 0 13.368-29.385v-34.43a40.074 40.074 0 0 0-32.475-39.003C163.174 206.98 36.267 113.684 1.52-13.57a39.822 39.822 0 0 1 38.53-50.07h353.764c12.927 0 22.07 9.46 22.07 41.62a89.923 89.923 0 0 0 26.644 64.131L586.019 185.73a40.673 40.673 0 0 1 11.067 31.562z m425.085 38.877a8.292 8.292 0 0 1-14.063 4.572l-84.373-84.374a65.834 65.834 0 0 0-93.297 0l-46.79 46.759a65.834 65.834 0 0 0 0 93.296l84.374 84.374a8.26 8.26 0 0 1-4.572 14.062 181.328 181.328 0 0 1-194.255-236.22L487.74-3.04a26.926 26.926 0 0 1 0-38.088l78.667-78.667a26.926 26.926 0 0 1 38.088 0l181.58 181.8a181.328 181.328 0 0 1 236.095 194.13z m0 0"  horiz-adv-x="1024" />

    
    <glyph glyph-name="zongji" unicode="&#58922;" d="M637.504 735.36c-294.784 0-539.072-438.592-539.072-657.92 0-202.368 92.672-202.368 539.072-202.368 446.464 0 539.136 0 539.136 202.368 0 219.328-244.288 657.92-539.136 657.92z m0-548.224a226.624 226.624 0 0 0-227.392 227.712A226.624 226.624 0 0 0 637.44 642.56a226.624 226.624 0 0 0 227.456-227.712A226.624 226.624 0 0 0 637.44 187.136zM637.504 895.552c-715.968 0-648.576-387.968-623.36-421.696 50.56-67.456 134.848-33.728 151.68 0C258.496 625.664 418.496 785.92 637.44 785.92s395.904-177.088 471.68-312.064c42.176-67.456 117.952-59.008 151.68 0C1286.08 516.032 1353.472 895.616 637.44 895.616z"  horiz-adv-x="1280" />

    
    <glyph glyph-name="chuanzhen" unicode="&#58923;" d="M286.72 451.584h391.168c22.528 0 43.008 18.432 43.008 43.008V752.64c0 22.528-18.432 43.008-43.008 43.008H303.104c-30.72 0-55.296-24.576-55.296-55.296v-249.856c0-22.528 16.384-38.912 38.912-38.912zM862.208 623.616H829.44c-28.672 0-51.2-16.384-51.2-55.296v-102.4c0-30.72-24.576-55.296-55.296-55.296H256c-30.72 0-55.296 24.576-55.296 55.296v102.4c0 32.768-14.336 55.296-51.2 55.296h-34.816c-40.96 0-73.728-32.768-73.728-73.728v-456.704c0-40.96 32.768-73.728 73.728-73.728h53.248c24.576 0 32.768 14.336 32.768 36.864v36.864c0 30.72 24.576 55.296 55.296 55.296h464.896c30.72 0 55.296-24.576 55.296-55.296v-43.008c0-20.48 8.192-30.72 28.672-30.72h55.296c40.96 0 73.728 32.768 73.728 73.728V549.888c2.048 40.96-30.72 73.728-71.68 73.728zM286.72 451.584h391.168c22.528 0 43.008 18.432 43.008 43.008V752.64c0 22.528-18.432 43.008-43.008 43.008H303.104c-30.72 0-55.296-24.576-55.296-55.296v-249.856c0-22.528 16.384-38.912 38.912-38.912zM280.576-48.128H686.08c20.48 0 36.864 16.384 36.864 36.864V66.56c0 16.384-14.336 30.72-30.72 30.72h-409.6c-18.432 0-34.816-14.336-34.816-34.816v-77.824c0-16.384 14.336-32.768 32.768-32.768z"  horiz-adv-x="1024" />

    


  </font>
</defs>
</svg>
